<?xml version="1.0" encoding="utf-8"?>
<!-- Generator: Adobe Illustrator 16.0.0, SVG Export Plug-In . SVG Version: 6.00 Build 0)  -->
<!DOCTYPE svg PUBLIC "-//W3C//DTD SVG 1.1//EN" "http://www.w3.org/Graphics/SVG/1.1/DTD/svg11.dtd">
<svg version="1.1" id="Layer_1" xmlns="http://www.w3.org/2000/svg" xmlns:xlink="http://www.w3.org/1999/xlink" x="0px" y="0px"
	 width="500px" height="500px" viewBox="0 0 500 500" enable-background="new 0 0 500 500" xml:space="preserve">
<path fill="#FFFFFF" d="M131.778,265.3h54.808v225.636c0,4.455,3.609,8.064,8.064,8.064h92.929c4.455,0,8.064-3.609,8.064-8.064
	V266.363h63.007c4.097,0,7.544-3.074,8.012-7.144l9.569-83.067c0.263-2.285-0.461-4.574-1.99-6.289
	c-1.53-1.716-3.721-2.698-6.02-2.698h-72.574v-52.071c0-15.696,8.451-23.656,25.123-23.656c2.376,0,47.451,0,47.451,0
	c4.455,0,8.064-3.611,8.064-8.064V7.124c0-4.455-3.609-8.064-8.064-8.064h-65.396C302.365-0.963,301.341-1,299.831-1
	c-11.347,0-50.787,2.228-81.942,30.889c-34.52,31.762-29.721,69.79-28.574,76.384v60.891h-57.537c-4.455,0-8.064,3.609-8.064,8.064
	v82.007C123.714,261.688,127.323,265.3,131.778,265.3z"/>
</svg>
