<?xml version="1.0" encoding="utf-8"?>
<!-- Generator: Adobe Illustrator 16.0.0, SVG Export Plug-In . SVG Version: 6.00 Build 0)  -->
<!DOCTYPE svg PUBLIC "-//W3C//DTD SVG 1.1//EN" "http://www.w3.org/Graphics/SVG/1.1/DTD/svg11.dtd">
<svg version="1.1" id="Capa_1" xmlns="http://www.w3.org/2000/svg" xmlns:xlink="http://www.w3.org/1999/xlink" x="0px" y="0px"
	 width="500px" height="500px" viewBox="0 0 500 500" enable-background="new 0 0 500 500" xml:space="preserve">
<path fill="#FFFFFF" d="M340.563,8.5H159.438C76.09,8.5,8.5,76.09,8.5,159.438v181.125C8.5,423.91,76.09,491.5,159.438,491.5
	h181.125c83.348,0,150.938-67.59,150.938-150.938V159.438C491.5,76.09,423.91,8.5,340.563,8.5z M446.219,340.563
	c0,58.262-47.395,105.656-105.656,105.656H159.438c-58.262,0-105.656-47.395-105.656-105.656V159.438
	c0-58.262,47.395-105.656,105.656-105.656h181.125c58.262,0,105.656,47.395,105.656,105.656V340.563z"/>
<path fill="#FFFFFF" d="M250,129.25c-66.684,0-120.75,54.066-120.75,120.75c0,66.685,54.066,120.75,120.75,120.75
	c66.685,0,120.75-54.065,120.75-120.75C370.75,183.316,316.685,129.25,250,129.25z M250,325.469
	c-41.598,0-75.469-33.87-75.469-75.469c0-41.628,33.871-75.469,75.469-75.469c41.599,0,75.469,33.84,75.469,75.469
	C325.469,291.599,291.599,325.469,250,325.469z"/>
<circle fill="#FFFFFF" cx="379.807" cy="120.194" r="16.09"/>
</svg>
